<svg xmlns="http://www.w3.org/2000/svg" viewBox="0 0 1000 1000"><rect x="2" y="2" width="996" height="996" rx="220" fill="#FF914D"/><g transform="translate(500.0,500.0) scale(0.62)"><g transform="rotate(-45) translate(0,-18) scale(581)" fill="#FFFFFF"><path d="M0,-1C0.175,-1 0.36,-0.84 0.36,-0.64C0.36,-0.44 0.095,-0.12 0,0C-0.095,-0.12 -0.36,-0.44 -0.36,-0.64C-0.36,-0.84 -0.175,-1 0,-1Z"/></g><g transform="rotate(135) translate(0,-18) scale(581)" fill="#FFFFFF"><path d="M0,-1C0.175,-1 0.36,-0.84 0.36,-0.64C0.36,-0.44 0.095,-0.12 0,0C-0.095,-0.12 -0.36,-0.44 -0.36,-0.64C-0.36,-0.84 -0.175,-1 0,-1Z"/></g><g transform="rotate(45) translate(0,-18) scale(413)" fill="#FFFFFF"><path d="M0,-1C0.175,-1 0.36,-0.84 0.36,-0.64C0.36,-0.44 0.095,-0.12 0,0C-0.095,-0.12 -0.36,-0.44 -0.36,-0.64C-0.36,-0.84 -0.175,-1 0,-1Z"/></g><g transform="rotate(-135) translate(0,-18) scale(413)" fill="#FFFFFF"><path d="M0,-1C0.175,-1 0.36,-0.84 0.36,-0.64C0.36,-0.44 0.095,-0.12 0,0C-0.095,-0.12 -0.36,-0.44 -0.36,-0.64C-0.36,-0.84 -0.175,-1 0,-1Z"/></g></g></svg>