<svg xmlns="http://www.w3.org/2000/svg" viewBox="0 0 1000 1000"><!-- Foto de perfil social — full-bleed, sem cantos: a plataforma aplica a própria máscara (círculo/quadrado). Marca em cores plenas sobre navy. Variante primária. --><rect width="1000" height="1000" fill="#14263C"/><g transform="translate(500.0,500.0) scale(0.62)"><g transform="rotate(-45) translate(0,-18) scale(581)" fill="#FF914D"><path d="M0,-1C0.175,-1 0.36,-0.84 0.36,-0.64C0.36,-0.44 0.095,-0.12 0,0C-0.095,-0.12 -0.36,-0.44 -0.36,-0.64C-0.36,-0.84 -0.175,-1 0,-1Z"/></g><g transform="rotate(135) translate(0,-18) scale(581)" fill="#FF914D"><path d="M0,-1C0.175,-1 0.36,-0.84 0.36,-0.64C0.36,-0.44 0.095,-0.12 0,0C-0.095,-0.12 -0.36,-0.44 -0.36,-0.64C-0.36,-0.84 -0.175,-1 0,-1Z"/></g><g transform="rotate(45) translate(0,-18) scale(413)" fill="#38B6FF"><path d="M0,-1C0.175,-1 0.36,-0.84 0.36,-0.64C0.36,-0.44 0.095,-0.12 0,0C-0.095,-0.12 -0.36,-0.44 -0.36,-0.64C-0.36,-0.84 -0.175,-1 0,-1Z"/></g><g transform="rotate(-135) translate(0,-18) scale(413)" fill="#38B6FF"><path d="M0,-1C0.175,-1 0.36,-0.84 0.36,-0.64C0.36,-0.44 0.095,-0.12 0,0C-0.095,-0.12 -0.36,-0.44 -0.36,-0.64C-0.36,-0.84 -0.175,-1 0,-1Z"/></g></g></svg>
