<svg xmlns="http://www.w3.org/2000/svg" viewBox="0 0 1000 1000">
  <g fill="#FF914D">
    <path transform="translate(500,500) rotate(-45) translate(0,-18) scale(581)" d="M0,-1C0.175,-1 0.36,-0.84 0.36,-0.64C0.36,-0.44 0.095,-0.12 0,0C-0.095,-0.12 -0.36,-0.44 -0.36,-0.64C-0.36,-0.84 -0.175,-1 0,-1Z"/>
    <path transform="translate(500,500) rotate(135) translate(0,-18) scale(581)" d="M0,-1C0.175,-1 0.36,-0.84 0.36,-0.64C0.36,-0.44 0.095,-0.12 0,0C-0.095,-0.12 -0.36,-0.44 -0.36,-0.64C-0.36,-0.84 -0.175,-1 0,-1Z"/>
  </g>
  <g fill="#38B6FF">
    <path transform="translate(500,500) rotate(45) translate(0,-18) scale(413)" d="M0,-1C0.175,-1 0.36,-0.84 0.36,-0.64C0.36,-0.44 0.095,-0.12 0,0C-0.095,-0.12 -0.36,-0.44 -0.36,-0.64C-0.36,-0.84 -0.175,-1 0,-1Z"/>
    <path transform="translate(500,500) rotate(-135) translate(0,-18) scale(413)" d="M0,-1C0.175,-1 0.36,-0.84 0.36,-0.64C0.36,-0.44 0.095,-0.12 0,0C-0.095,-0.12 -0.36,-0.44 -0.36,-0.64C-0.36,-0.84 -0.175,-1 0,-1Z"/>
  </g>
</svg>
