<svg xmlns="http://www.w3.org/2000/svg" viewBox="0 0 670 236"><g transform="translate(118.0,95.5) scale(0.14)"><g transform="rotate(-45) translate(0,-18) scale(581)" fill="#FF914D"><path d="M0,-1C0.175,-1 0.36,-0.84 0.36,-0.64C0.36,-0.44 0.095,-0.12 0,0C-0.095,-0.12 -0.36,-0.44 -0.36,-0.64C-0.36,-0.84 -0.175,-1 0,-1Z"/></g><g transform="rotate(135) translate(0,-18) scale(581)" fill="#FF914D"><path d="M0,-1C0.175,-1 0.36,-0.84 0.36,-0.64C0.36,-0.44 0.095,-0.12 0,0C-0.095,-0.12 -0.36,-0.44 -0.36,-0.64C-0.36,-0.84 -0.175,-1 0,-1Z"/></g><g transform="rotate(45) translate(0,-18) scale(413)" fill="#38B6FF"><path d="M0,-1C0.175,-1 0.36,-0.84 0.36,-0.64C0.36,-0.44 0.095,-0.12 0,0C-0.095,-0.12 -0.36,-0.44 -0.36,-0.64C-0.36,-0.84 -0.175,-1 0,-1Z"/></g><g transform="rotate(-135) translate(0,-18) scale(413)" fill="#38B6FF"><path d="M0,-1C0.175,-1 0.36,-0.84 0.36,-0.64C0.36,-0.44 0.095,-0.12 0,0C-0.095,-0.12 -0.36,-0.44 -0.36,-0.64C-0.36,-0.84 -0.175,-1 0,-1Z"/></g></g><g fill="#FFFFFF"><g transform="translate(242.000,92) scale(0.078000,-0.078000)"><path d="M502 115H252L214 0H8L265 705H491L747 0H540ZM453 265 377 493 302 265Z"/></g><g transform="translate(300.890,92) scale(0.078000,-0.078000)"><path d="M428 483V561H624V6Q624 -73 594.0 -136.5Q564 -200 500.5 -238.0Q437 -276 340 -276Q210 -276 132.0 -215.0Q54 -154 43 -49H236Q242 -76 266.0 -91.0Q290 -106 328 -106Q428 -106 428 6V78Q405 39 362.5 16.0Q320 -7 263 -7Q196 -7 141.5 28.0Q87 63 55.5 128.5Q24 194 24 281Q24 368 55.5 433.0Q87 498 141.5 533.0Q196 568 263 568Q320 568 362.5 545.0Q405 522 428 483ZM326 397Q282 397 253.0 366.5Q224 336 224 281Q224 227 253.0 195.5Q282 164 326 164Q369 164 398.5 195.0Q428 226 428 281Q428 335 398.5 366.0Q369 397 326 397Z"/></g><g transform="translate(353.930,92) scale(0.078000,-0.078000)"><path d="M433 566V357H378Q314 357 283.0 332.0Q252 307 252 245V0H56V561H252V462Q285 510 332.0 538.0Q379 566 433 566Z"/></g><g transform="translate(388.796,92) scale(0.078000,-0.078000)"><path d="M24 281Q24 368 62.5 433.0Q101 498 167.5 533.0Q234 568 318 568Q402 568 468.5 533.0Q535 498 573.5 433.0Q612 368 612 281Q612 194 573.5 128.5Q535 63 468.0 28.0Q401 -7 317 -7Q233 -7 166.5 28.0Q100 63 62.0 128.0Q24 193 24 281ZM413 281Q413 338 385.5 368.0Q358 398 318 398Q278 398 251.0 368.0Q224 338 224 281Q224 223 250.0 193.0Q276 163 317 163Q358 163 385.5 193.5Q413 224 413 281Z"/></g><g transform="translate(438.404,92) scale(0.078000,-0.078000)"><path d="M387 167V0H302Q87 0 87 213V398H18V561H87V697H284V561H386V398H284V210Q284 187 294.5 177.0Q305 167 330 167Z"/></g><g transform="translate(471.242,92) scale(0.078000,-0.078000)"><path d="M589 241H218Q221 195 243.5 172.5Q266 150 301 150Q350 150 371 194H580Q567 136 529.5 90.5Q492 45 435.0 19.0Q378 -7 309 -7Q226 -7 161.5 28.0Q97 63 60.5 128.0Q24 193 24 281Q24 369 60.0 433.5Q96 498 160.5 533.0Q225 568 309 568Q392 568 456.0 534.0Q520 500 556.0 436.5Q592 373 592 287Q592 264 589 241ZM392 336Q392 372 368.0 392.5Q344 413 308 413Q272 413 249.0 393.5Q226 374 219 336Z"/></g><g transform="translate(519.290,92) scale(0.078000,-0.078000)"><path d="M308 568Q415 568 488.0 509.5Q561 451 582 346H374Q356 401 304 401Q267 401 245.5 370.5Q224 340 224 281Q224 222 245.5 191.0Q267 160 304 160Q357 160 374 215H582Q561 111 488.0 52.0Q415 -7 308 -7Q225 -7 160.5 28.0Q96 63 60.0 128.0Q24 193 24 281Q24 368 60.0 433.0Q96 498 160.5 533.0Q225 568 308 568Z"/></g><g transform="translate(566.636,92) scale(0.078000,-0.078000)"><path d="M634 327V0H438V301Q438 349 413.0 376.5Q388 404 346 404Q302 404 277.0 376.5Q252 349 252 301V0H56V740H252V481Q278 519 322.5 542.5Q367 566 425 566Q521 566 577.5 501.5Q634 437 634 327Z"/></g></g><g fill="#FFFFFF"><g transform="translate(242.000,156) scale(0.066300,-0.066300)"><path d="M274 566Q329 566 374.5 543.0Q420 520 446 481V740H617V0H446V80Q422 40 377.5 16.0Q333 -8 274 -8Q205 -8 149.0 27.5Q93 63 60.5 128.5Q28 194 28 280Q28 366 60.5 431.0Q93 496 149.0 531.0Q205 566 274 566ZM324 417Q273 417 237.5 380.5Q202 344 202 280Q202 216 237.5 178.5Q273 141 324 141Q375 141 410.5 178.0Q446 215 446 279Q446 343 410.5 380.0Q375 417 324 417Z"/></g><g transform="translate(287.018,156) scale(0.066300,-0.066300)"><path d="M274 566Q333 566 377.5 542.0Q422 518 446 479V558H617V0H446V79Q421 40 376.5 16.0Q332 -8 273 -8Q205 -8 149.0 27.5Q93 63 60.5 128.5Q28 194 28 280Q28 366 60.5 431.0Q93 496 149.0 531.0Q205 566 274 566ZM324 417Q273 417 237.5 380.5Q202 344 202 280Q202 216 237.5 178.5Q273 141 324 141Q375 141 410.5 178.0Q446 215 446 279Q446 343 410.5 380.0Q375 417 324 417Z"/></g><g transform="translate(346.091,156) scale(0.066300,-0.066300)"><path d="M670 702V0H499V289H233V0H62V702H233V427H499V702Z"/></g><g transform="translate(394.556,156) scale(0.066300,-0.066300)"><path d="M28 279Q28 365 66.0 430.5Q104 496 170.0 531.0Q236 566 318 566Q400 566 466.0 531.0Q532 496 570.0 430.5Q608 365 608 279Q608 193 569.5 127.5Q531 62 464.5 27.0Q398 -8 316 -8Q234 -8 168.5 27.0Q103 62 65.5 127.0Q28 192 28 279ZM434 279Q434 346 400.5 382.0Q367 418 318 418Q268 418 235.0 382.5Q202 347 202 279Q202 212 234.5 176.0Q267 140 316 140Q365 140 399.5 176.0Q434 212 434 279Z"/></g><g transform="translate(436.789,156) scale(0.066300,-0.066300)"><path d="M233 740V0H62V740Z"/></g><g transform="translate(456.348,156) scale(0.066300,-0.066300)"><path d="M274 566Q333 566 377.5 542.0Q422 518 446 479V558H617V0H446V79Q421 40 376.5 16.0Q332 -8 273 -8Q205 -8 149.0 27.5Q93 63 60.5 128.5Q28 194 28 280Q28 366 60.5 431.0Q93 496 149.0 531.0Q205 566 274 566ZM324 417Q273 417 237.5 380.5Q202 344 202 280Q202 216 237.5 178.5Q273 141 324 141Q375 141 410.5 178.0Q446 215 446 279Q446 343 410.5 380.0Q375 417 324 417Z"/></g><g transform="translate(501.366,156) scale(0.066300,-0.066300)"><path d="M617 326V0H447V303Q447 359 418.0 390.0Q389 421 340 421Q291 421 262.0 390.0Q233 359 233 303V0H62V558H233V484Q259 521 303.0 542.5Q347 564 402 564Q500 564 558.5 500.5Q617 437 617 326Z"/></g><g transform="translate(546.052,156) scale(0.066300,-0.066300)"><path d="M274 566Q329 566 374.5 543.0Q420 520 446 481V740H617V0H446V80Q422 40 377.5 16.0Q333 -8 274 -8Q205 -8 149.0 27.5Q93 63 60.5 128.5Q28 194 28 280Q28 366 60.5 431.0Q93 496 149.0 531.0Q205 566 274 566ZM324 417Q273 417 237.5 380.5Q202 344 202 280Q202 216 237.5 178.5Q273 141 324 141Q375 141 410.5 178.0Q446 215 446 279Q446 343 410.5 380.0Q375 417 324 417Z"/></g><g transform="translate(591.070,156) scale(0.066300,-0.066300)"><path d="M274 566Q333 566 377.5 542.0Q422 518 446 479V558H617V0H446V79Q421 40 376.5 16.0Q332 -8 273 -8Q205 -8 149.0 27.5Q93 63 60.5 128.5Q28 194 28 280Q28 366 60.5 431.0Q93 496 149.0 531.0Q205 566 274 566ZM324 417Q273 417 237.5 380.5Q202 344 202 280Q202 216 237.5 178.5Q273 141 324 141Q375 141 410.5 178.0Q446 215 446 279Q446 343 410.5 380.0Q375 417 324 417Z"/></g></g></svg>